<svg width="200" height="200" viewBox="0 0 200 200" fill="none" xmlns="http://www.w3.org/2000/svg">
<g clip-path="url(#clip0_75_1602)">
<path d="M140.497 24.1059C159.284 42.893 149.756 61.367 146.625 70.1343C143.494 70.1343 124.983 64.7316 110.482 37.2569C102.417 21.9748 106.234 10.0164 109.052 9.96896C111.87 9.92155 127.626 11.2347 140.497 24.1059Z" fill="white"/>
<path d="M109.344 0C114.515 0.0467062 132.609 2.11891 147.546 17.0565C159 28.5098 162.304 40.6048 161.735 51.4021C161.211 61.3515 157.212 70.1289 156.013 73.4866L153.65 80.1024H146.625C144.007 80.1024 140.901 79.2494 138.077 78.1496C134.925 76.9217 131.16 75.0087 127.098 72.1636C118.926 66.4399 109.63 56.9991 101.666 41.9096C96.8318 32.7499 95.3199 24.1304 95.7355 17.295C95.9389 13.9503 96.6267 10.6997 97.8947 7.94073C98.5173 6.58614 99.4597 4.95702 100.895 3.50942C102.247 2.14632 104.946 0.0682182 108.884 0.00194697L109.344 0ZM109.052 9.96851C106.234 10.0163 102.417 21.9747 110.482 37.2563C124.53 63.8735 142.342 69.7749 146.288 70.1174L146.625 70.1339C149.708 61.5035 158.988 43.4679 141.357 24.9865L140.497 24.1055C127.626 11.2343 111.87 9.9211 109.052 9.96851Z" fill="#2A305A"/>
<path d="M119.26 48.2168C158.364 48.2168 190.064 79.9172 190.064 119.021C190.064 158.126 158.364 189.826 119.26 189.826C106.003 189.826 93.5979 186.181 82.9895 179.841C80.5272 185.821 74.644 190.031 67.7759 190.031C58.6919 190.031 51.3278 182.667 51.3278 173.583C51.3278 167.053 55.1334 161.411 60.648 158.755C52.9527 147.426 48.4551 133.749 48.4551 119.021C48.4551 79.9171 80.1554 48.2168 119.26 48.2168Z" fill="white"/>
<path d="M190.064 119.021C190.064 79.9169 158.364 48.2166 119.259 48.2166C80.1552 48.2166 48.4548 79.9169 48.4548 119.021C48.4548 133.749 52.9525 147.426 60.6478 158.755C55.1331 161.411 51.3276 167.053 51.3276 173.583C51.3276 182.667 58.6916 190.031 67.7756 190.031C74.6438 190.031 80.527 185.821 82.9893 179.841C93.5976 186.181 106.003 189.826 119.259 189.826C158.364 189.826 190.064 158.125 190.064 119.021ZM200.026 120.065C199.471 163.846 164.084 199.233 120.303 199.788L119.259 199.794C107.43 199.794 96.1796 197.243 86.0402 192.663C81.4169 197.092 75.1834 199.863 68.2926 199.995L67.7756 200C53.1862 200 41.3591 188.173 41.3591 173.583C41.3591 167.039 43.7395 161.059 47.6702 156.451C41.9204 145.474 38.6163 133.012 38.4902 119.807L38.4863 119.021C38.4863 74.4114 74.6497 38.248 119.259 38.248L120.303 38.2549C164.432 38.8136 200.033 74.7598 200.033 119.021L200.026 120.065Z" fill="#2A305A"/>
<path d="M48.9927 53.2257C58.0109 61.4917 67.7798 81.7195 70.5979 89.8606L59.3256 103.951C56.5075 103.011 45.4232 96.6236 31.145 86.1028C13.2972 72.9518 2.96428 44.7715 5.78235 42.8928C8.60042 41.0141 33.0232 38.5881 48.9927 53.2257Z" fill="white"/>
<path d="M11.6855 36.5125C15.3607 36.104 20.0877 35.9202 25.2394 36.2847C35.3827 37.0023 48.0329 39.9079 57.2262 48.3345C62.365 53.0447 67.3811 60.7723 71.3496 67.9649C75.3708 75.2529 78.6488 82.6089 80.1733 87.0131L70.7538 90.2743C69.4603 86.5374 66.4446 79.7083 62.6223 72.7807C58.7475 65.7579 54.3699 59.2392 50.4907 55.6833C43.7146 49.4724 33.7348 46.8796 24.5365 46.2288C20.0175 45.9091 15.8947 46.0742 12.7866 46.4196C11.6865 46.5419 10.742 46.6845 9.97318 46.8275C9.98317 47.2609 10.0095 47.767 10.0598 48.3452C10.3048 51.157 11.0459 55.0551 12.4196 59.3651C15.2023 68.0964 20.2837 77.6079 28.0168 83.306C35.0526 88.4903 41.2807 92.6406 46.0662 95.5944C51.0561 98.6743 54.0475 100.182 54.8169 100.438L51.6647 109.895C49.616 109.212 45.6559 107.056 40.8298 104.077C35.7991 100.972 29.346 96.6678 22.1038 91.3315C11.9894 83.8787 6.02154 72.117 2.92221 62.3926C1.35487 57.4749 0.446275 52.849 0.129277 49.2096C-0.0272828 47.4121 -0.054259 45.6899 0.118569 44.2196C0.203884 43.4938 0.357162 42.6494 0.663722 41.8228C0.92732 41.1122 1.55384 39.7208 3.01664 38.7456C3.74085 38.2628 4.51217 37.9726 5.01229 37.8033C5.59343 37.6066 6.23414 37.4349 6.89501 37.2844C8.22191 36.9824 9.85129 36.7163 11.6855 36.5125Z" fill="#2A305A"/>
<path d="M119.145 113.309C119.762 115.489 122.029 116.757 124.209 116.14C126.38 115.526 127.645 113.275 127.045 111.103C127.043 111.094 127.041 111.086 127.039 111.078L127.039 111.078L127.039 111.077L136.632 108.365C136.634 108.372 136.635 108.381 136.637 108.388C137.263 110.554 139.522 111.811 141.695 111.197C143.874 110.581 145.141 108.314 144.525 106.134L154.117 103.421C156.232 110.899 151.884 118.675 144.407 120.79C141.074 121.732 137.682 121.39 134.758 120.059C132.964 122.723 130.254 124.79 126.921 125.733C119.444 127.847 111.667 123.499 109.553 116.021L119.145 113.309Z" fill="#2A305A"/>
<path d="M163.779 88.2207C163.779 91.7993 160.878 94.7003 157.3 94.7003C153.721 94.7003 150.82 91.7993 150.82 88.2207C150.82 84.6422 153.721 81.7412 157.3 81.7412C160.878 81.7412 163.779 84.6422 163.779 88.2207Z" fill="#2A305A"/>
<path d="M105.962 104.17C105.962 107.749 103.061 110.649 99.4825 110.649C95.9039 110.649 93.0029 107.749 93.0029 104.17C93.0029 100.591 95.9039 97.6904 99.4825 97.6904C103.061 97.6904 105.962 100.591 105.962 104.17Z" fill="#2A305A"/>
<path d="M110.199 144.906C114.126 146.496 120.253 149.719 125.252 153.271C127.733 155.034 130.194 157.059 131.966 159.185C133.459 160.977 135.807 164.445 134.492 168.436C133.243 172.231 129.662 173.751 127.381 174.406C124.807 175.146 121.77 175.401 118.868 175.44C112.996 175.517 106.396 174.709 102.106 173.954L103.835 164.137C107.76 164.827 113.698 165.539 118.737 165.472C120.814 165.445 122.533 165.281 123.815 165.018C122.817 163.962 121.34 162.721 119.477 161.397C115.119 158.299 109.674 155.449 106.458 154.147L110.199 144.906Z" fill="#2A305A"/>
<path d="M157.596 126.204C154.987 129.542 151.287 135.393 148.729 140.967C147.46 143.733 146.338 146.717 145.864 149.443C145.465 151.741 145.162 155.918 148.293 158.72C151.27 161.384 155.132 160.913 157.435 160.342C160.035 159.698 162.794 158.403 165.328 156.988C170.455 154.124 175.769 150.129 179.11 147.333L172.71 139.69C169.654 142.248 164.865 145.828 160.466 148.286C158.652 149.299 157.081 150.015 155.838 150.427C156.176 149.015 156.836 147.202 157.789 145.125C160.02 140.264 163.314 135.077 165.451 132.343L157.596 126.204Z" fill="#2A305A"/>
</g>
<defs>
<clipPath id="clip0_75_1602">
<rect width="200" height="200" fill="white"/>
</clipPath>
</defs>
</svg>
