<?xml version="1.0" encoding="UTF-8"?>
<svg id="Layer_2" data-name="Layer 2" xmlns="http://www.w3.org/2000/svg" viewBox="0 0 136.26 161.53">
  <defs>
    <style>
      .cls-1 {
        fill: #00304d;
      }

      .cls-2 {
        fill: #fe3f4b;
      }

      .cls-3 {
        fill: #76e7fc;
      }
    </style>
  </defs>
  <g id="final">
    <g id="icon">
      <g>
        <path class="cls-2" d="M38.11,47.68c0-11.9,9.68-21.58,21.58-21.58h28.71v-14.32L76.62,0H11.82C5.32,0,.04,5.27.04,11.78v78.57c0,6.51,5.27,11.78,11.78,11.78h26.28v-54.45Z"/>
        <path class="cls-1" d="M9.8,111.72c0,20.71,16.85,37.55,37.55,37.55,10.08,0,19.44-3.93,26.37-10.8h-18.05v-9.8h27.95c2.71,0,4.9,2.19,4.9,4.9v27.95h-9.8v-14.33c-8.52,7.57-19.55,11.87-31.38,11.87-26.11,0-47.35-21.24-47.35-47.35h9.8Z"/>
        <path class="cls-3" d="M124.48,35.9H59.69c-6.51,0-11.78,5.27-11.78,11.78v72h35.72c7.66,0,13.9,6.23,13.9,13.9v4.45h26.95c6.51,0,11.78-5.27,11.78-11.78V47.68l-11.78-11.78Z"/>
        <g>
          <path class="cls-1" d="M73.5,93.37l-13.12-13.12c-1.76-1.76-1.76-4.61,0-6.36l13.12-13.12,6.36,6.36-9.94,9.94,9.94,9.94-6.36,6.36Z"/>
          <path class="cls-1" d="M110.66,93.37l-6.36-6.36,9.94-9.94-9.94-9.94,6.36-6.36,13.12,13.12c1.76,1.76,1.76,4.61,0,6.36l-13.12,13.12Z"/>
          <rect class="cls-1" x="71.43" y="71.69" width="41.29" height="9" transform="translate(-4.02 147.24) rotate(-76.08)"/>
        </g>
      </g>
    </g>
  </g>
</svg>