<?xml version="1.0" encoding="UTF-8"?>
<svg id="Layer_2" data-name="Layer 2" xmlns="http://www.w3.org/2000/svg" viewBox="0 0 993.49 161.53">
  <defs>
    <style>
      .cls-1 {
        fill: #00304d;
      }

      .cls-2 {
        fill: #fe3f4b;
      }

      .cls-3 {
        fill: #76e7fc;
      }
    </style>
  </defs>
  <g id="final">
    <g id="logo">
      <g>
        <path class="cls-2" d="M38.11,47.68c0-11.9,9.68-21.58,21.58-21.58h28.71v-14.32L76.62,0H11.82C5.32,0,.04,5.27.04,11.78v78.57c0,6.51,5.27,11.78,11.78,11.78h26.28v-54.45Z"/>
        <path class="cls-1" d="M9.8,111.72c0,20.71,16.85,37.55,37.55,37.55,10.08,0,19.44-3.93,26.37-10.8h-18.05v-9.8h27.95c2.71,0,4.9,2.19,4.9,4.9v27.95h-9.8v-14.33c-8.52,7.57-19.55,11.87-31.38,11.87-26.11,0-47.35-21.24-47.35-47.35h9.8Z"/>
        <path class="cls-3" d="M124.48,35.9H59.69c-6.51,0-11.78,5.27-11.78,11.78v72h35.72c7.66,0,13.9,6.23,13.9,13.9v4.45h26.95c6.51,0,11.78-5.27,11.78-11.78V47.68l-11.78-11.78Z"/>
        <g>
          <path class="cls-1" d="M73.5,93.37l-13.12-13.12c-1.76-1.76-1.76-4.61,0-6.36l13.12-13.12,6.36,6.36-9.94,9.94,9.94,9.94-6.36,6.36Z"/>
          <path class="cls-1" d="M110.66,93.37l-6.36-6.36,9.94-9.94-9.94-9.94,6.36-6.36,13.12,13.12c1.76,1.76,1.76,4.61,0,6.36l-13.12,13.12Z"/>
          <rect class="cls-1" x="71.43" y="71.69" width="41.29" height="9" transform="translate(-4.02 147.24) rotate(-76.08)"/>
        </g>
      </g>
      <g>
        <polygon class="cls-1" points="260.85 124.06 284.08 124.06 238.28 64.28 282.46 21.16 258.5 21.16 212.49 67.42 212.49 21.16 193.38 21.16 193.38 124.06 212.49 124.06 212.49 89.46 225.41 76.84 260.85 124.06"/>
        <path class="cls-1" d="M323.67,125.53c-7.74,0-14.65-1.74-20.73-5.22-6.08-3.48-10.88-8.25-14.41-14.33-3.53-6.08-5.29-12.98-5.29-20.73s1.76-14.65,5.29-20.73c3.53-6.08,8.33-10.85,14.41-14.33,6.08-3.48,12.98-5.22,20.73-5.22s14.5,1.74,20.58,5.22c6.08,3.48,10.85,8.26,14.33,14.33,3.48,6.08,5.22,12.99,5.22,20.73s-1.74,14.65-5.22,20.73c-3.48,6.08-8.26,10.86-14.33,14.33-6.08,3.48-12.94,5.22-20.58,5.22ZM323.67,109.5c4.21,0,7.96-1.08,11.25-3.23,3.28-2.15,5.88-5.05,7.79-8.67,1.91-3.62,2.82-7.74,2.72-12.35.1-4.7-.81-8.87-2.72-12.5-1.91-3.62-4.51-6.49-7.79-8.6-3.28-2.11-7.03-3.16-11.25-3.16s-8.01,1.05-11.39,3.16c-3.38,2.11-6,5-7.86,8.67-1.86,3.67-2.79,7.82-2.79,12.42s.93,8.72,2.79,12.35c1.86,3.63,4.48,6.52,7.86,8.67,3.38,2.16,7.18,3.23,11.39,3.23Z"/>
        <path class="cls-1" d="M443.18,59.08c-2.01-4.7-5-8.23-8.97-10.58-3.97-2.35-8.89-3.53-14.77-3.53-4.12,0-8.14.88-12.05,2.65-3.92,1.76-7.3,4.09-10.14,6.98-.91.93-1.72,1.9-2.44,2.89l-.2-10.9h-17.64v77.47h18.08v-46.75c0-2.35.46-4.51,1.4-6.47.93-1.96,2.21-3.7,3.82-5.22,1.62-1.52,3.53-2.69,5.73-3.53,2.2-.83,4.63-1.25,7.28-1.25,3.23-.1,5.98.47,8.23,1.69,2.25,1.23,3.92,3.14,5,5.73,1.08,2.6,1.62,5.86,1.62,9.78v46.01h18.08v-47.33c0-7.06-1.01-12.94-3.01-17.64Z"/>
        <polygon class="cls-1" points="512.72 46.59 491.64 100.09 471.27 46.59 451.57 46.59 484.2 124.06 497.73 124.06 531.98 46.59 512.72 46.59"/>
        <path class="cls-1" d="M608.07,83.04c.1-5.49-.71-10.56-2.43-15.21-1.72-4.65-4.19-8.67-7.42-12.05-3.23-3.38-7.06-6.05-11.47-8.01-4.41-1.96-9.16-2.94-14.26-2.94-5.78,0-11.1,1.01-15.95,3.01-4.85,2.01-9.02,4.85-12.5,8.53-3.48,3.67-6.2,8.01-8.16,13.01-1.96,5-2.94,10.54-2.94,16.61,0,7.64,1.74,14.43,5.22,20.36,3.48,5.93,8.33,10.61,14.55,14.04,6.22,3.43,13.4,5.15,21.54,5.15,3.62,0,7.3-.49,11.03-1.47,3.72-.98,7.28-2.33,10.66-4.04,3.38-1.71,6.39-3.8,9.04-6.25l-8.97-12.5c-3.53,3.04-6.81,5.15-9.85,6.32-3.04,1.18-6.37,1.76-10,1.76-5.2,0-9.73-1-13.6-3.01-3.87-2.01-6.86-4.87-8.97-8.6-1.42-2.5-2.35-5.3-2.81-8.38h57.13l.15-6.32ZM560.36,63.64c3.28-1.86,7.33-2.79,12.13-2.79,3.13,0,6,.66,8.6,1.98,2.59,1.32,4.73,3.14,6.39,5.44,1.67,2.3,2.65,4.97,2.94,8.01v.73h-39.25c.41-1.97,1-3.76,1.76-5.37,1.67-3.48,4.14-6.15,7.42-8.01Z"/>
        <path class="cls-1" d="M667.59,45.41c-1.52-.29-3.11-.44-4.78-.44-3.82,0-7.47.91-10.95,2.72-3.48,1.81-6.54,4.29-9.19,7.42-1.25,1.48-2.32,3.06-3.22,4.72l-.16-13.24h-17.79v77.47h18.23v-41.31c0-2.74.46-5.22,1.4-7.42.93-2.21,2.23-4.14,3.9-5.81,1.67-1.67,3.6-2.96,5.81-3.9,2.21-.93,4.53-1.4,6.98-1.4,1.57,0,3.14.2,4.7.59,1.57.39,2.89.88,3.97,1.47l4.85-19.85c-.98-.39-2.23-.73-3.75-1.03Z"/>
        <polygon class="cls-1" points="727.49 46.59 710.58 46.59 710.58 26.89 692.5 26.89 692.5 46.59 677.21 46.59 677.21 63.34 692.5 63.34 692.5 124.06 710.58 124.06 710.58 63.34 727.49 63.34 727.49 46.59"/>
        <path class="cls-1" d="M807.54,83.04c.1-5.49-.71-10.56-2.43-15.21-1.71-4.65-4.19-8.67-7.42-12.05-3.23-3.38-7.05-6.05-11.46-8.01-4.41-1.96-9.16-2.94-14.26-2.94-5.78,0-11.1,1.01-15.95,3.01-4.85,2.01-9.02,4.85-12.5,8.53-3.48,3.67-6.2,8.01-8.16,13.01-1.96,5-2.94,10.54-2.94,16.61,0,7.64,1.74,14.43,5.22,20.36,3.48,5.93,8.33,10.61,14.55,14.04,6.22,3.43,13.4,5.15,21.54,5.15,3.62,0,7.3-.49,11.03-1.47,3.72-.98,7.28-2.33,10.66-4.04,3.38-1.71,6.39-3.8,9.04-6.25l-8.97-12.5c-3.53,3.04-6.81,5.15-9.85,6.32-3.04,1.18-6.37,1.76-10,1.76-5.2,0-9.73-1-13.6-3.01-3.87-2.01-6.86-4.87-8.97-8.6-1.42-2.5-2.35-5.3-2.81-8.38h57.13l.15-6.32ZM759.84,63.64c3.28-1.86,7.33-2.79,12.13-2.79,3.13,0,6,.66,8.6,1.98,2.59,1.32,4.73,3.14,6.39,5.44,1.67,2.3,2.65,4.97,2.94,8.01v.73h-39.25c.41-1.97,1-3.76,1.76-5.37,1.67-3.48,4.14-6.15,7.42-8.01Z"/>
        <path class="cls-1" d="M867.06,45.41c-1.52-.29-3.11-.44-4.78-.44-3.82,0-7.47.91-10.95,2.72-3.48,1.81-6.54,4.29-9.19,7.42-1.25,1.48-2.32,3.06-3.22,4.72l-.16-13.24h-17.79v77.47h18.23v-41.31c0-2.74.46-5.22,1.4-7.42.93-2.21,2.23-4.14,3.89-5.81,1.67-1.67,3.6-2.96,5.81-3.9,2.21-.93,4.53-1.4,6.98-1.4,1.57,0,3.14.2,4.7.59,1.57.39,2.89.88,3.97,1.47l4.85-19.85c-.98-.39-2.23-.73-3.75-1.03Z"/>
        <path class="cls-1" d="M876.28,125.67c-3.53,0-6.25-1.03-8.16-3.09-1.91-2.06-2.87-4.95-2.87-8.67,0-3.43,1-6.25,3.01-8.45,2.01-2.2,4.68-3.31,8.01-3.31,3.53,0,6.25,1.01,8.16,3.01,1.91,2.01,2.87,4.92,2.87,8.75,0,3.43-1.01,6.25-3.01,8.45-2.01,2.21-4.68,3.31-8.01,3.31Z"/>
        <path class="cls-1" d="M929.59,125.53c-6.86,0-13.01-1.15-18.45-3.46-5.44-2.3-9.88-5.61-13.3-9.92l11.76-10.14c2.94,3.33,6.22,5.73,9.85,7.2,3.62,1.47,7.45,2.21,11.47,2.21,1.67,0,3.16-.2,4.48-.59,1.32-.39,2.47-.98,3.45-1.76.98-.78,1.74-1.69,2.28-2.72.54-1.03.81-2.18.81-3.46,0-2.35-.88-4.21-2.65-5.59-.98-.68-2.52-1.42-4.63-2.21-2.11-.78-4.83-1.57-8.16-2.35-5.29-1.37-9.7-2.96-13.23-4.78-3.53-1.81-6.27-3.85-8.23-6.1-1.67-1.86-2.92-3.97-3.75-6.32-.83-2.35-1.25-4.9-1.25-7.64,0-3.43.76-6.54,2.28-9.33,1.52-2.79,3.6-5.22,6.25-7.28,2.65-2.06,5.73-3.62,9.26-4.7,3.53-1.08,7.2-1.62,11.02-1.62s7.72.49,11.39,1.47c3.67.98,7.1,2.38,10.29,4.19,3.18,1.81,5.9,3.99,8.16,6.54l-10,11.03c-1.86-1.76-3.9-3.33-6.1-4.7-2.21-1.37-4.44-2.47-6.69-3.31-2.26-.83-4.36-1.25-6.32-1.25s-3.53.17-5,.51c-1.47.34-2.7.86-3.67,1.54-.98.69-1.74,1.54-2.28,2.57-.54,1.03-.81,2.23-.81,3.6.1,1.18.42,2.28.96,3.31.54,1.03,1.3,1.89,2.28,2.57,1.08.69,2.69,1.47,4.85,2.35,2.15.88,4.95,1.72,8.38,2.5,4.8,1.28,8.82,2.7,12.05,4.26,3.23,1.57,5.78,3.38,7.64,5.44,1.86,1.76,3.18,3.82,3.97,6.17.78,2.35,1.18,4.95,1.18,7.79,0,4.61-1.3,8.72-3.9,12.35-2.6,3.63-6.13,6.47-10.58,8.53-4.46,2.06-9.48,3.09-15.07,3.09Z"/>
        <path class="cls-1" d="M981.88,30.12c-3.63,0-6.45-.91-8.45-2.72-2.01-1.81-3.01-4.38-3.01-7.72,0-3.14,1.03-5.68,3.09-7.64,2.06-1.96,4.85-2.94,8.38-2.94,3.72,0,6.59.91,8.6,2.72,2.01,1.81,3.01,4.44,3.01,7.86,0,3.04-1.03,5.54-3.09,7.5-2.06,1.96-4.9,2.94-8.53,2.94ZM973.06,124.06V46.59h18.08v77.47h-18.08Z"/>
      </g>
    </g>
  </g>
</svg>